<?xml version="1.0" encoding="UTF-8" standalone="no"?>
<!DOCTYPE svg PUBLIC "-//W3C//DTD SVG 1.1//EN"
 "http://www.w3.org/Graphics/SVG/1.1/DTD/svg11.dtd">
<!-- Generated by graphviz version 2.34.0 (20131112.1627)
 -->
<!-- Title: controllers_diagram Pages: 1 -->
<svg width="539pt" height="300pt"
 viewBox="0.00 0.00 539.42 300.40" xmlns="http://www.w3.org/2000/svg" xmlns:xlink="http://www.w3.org/1999/xlink">
<g id="graph0" class="graph" transform="scale(1 1) rotate(0) translate(4 296.4)">
<title>controllers_diagram</title>
<polygon fill="white" stroke="white" points="-4,4 -4,-296.4 535.423,-296.4 535.423,4 -4,4"/>
<!-- _diagram_info -->
<g id="node1" class="node"><title>_diagram_info</title>
<text text-anchor="start" x="333" y="-69" font-family="Times,serif" font-size="13.00">Controllers diagram</text>
<text text-anchor="start" x="333" y="-53.4" font-family="Times,serif" font-size="13.00">Date: Nov 12 2013 &#45; 17:31</text>
<text text-anchor="start" x="333" y="-37.8" font-family="Times,serif" font-size="13.00">Migration version: 20131112151934</text>
<text text-anchor="start" x="333" y="-22.2" font-family="Times,serif" font-size="13.00">Generated by RailRoady 1.1.1</text>
<text text-anchor="start" x="333" y="-6.6" font-family="Times,serif" font-size="13.00">http://railroady.prestonlee.com</text>
</g>
<!-- ApplicationController -->
<g id="node2" class="node"><title>ApplicationController</title>
<path fill="none" stroke="black" d="M12,-155.947C12,-155.947 127.642,-155.947 127.642,-155.947 133.642,-155.947 139.642,-161.947 139.642,-167.947 139.642,-167.947 139.642,-241.547 139.642,-241.547 139.642,-247.547 133.642,-253.547 127.642,-253.547 127.642,-253.547 12,-253.547 12,-253.547 6,-253.547 0,-247.547 0,-241.547 0,-241.547 0,-167.947 0,-167.947 0,-161.947 6,-155.947 12,-155.947"/>
<text text-anchor="middle" x="69.8208" y="-235.547" font-family="Times,serif" font-size="14.00">ApplicationController</text>
<polyline fill="none" stroke="black" points="0,-228.747 139.642,-228.747 "/>
<polyline fill="none" stroke="black" points="0,-204.747 139.642,-204.747 "/>
<polyline fill="none" stroke="black" points="0,-180.747 139.642,-180.747 "/>
<text text-anchor="start" x="8" y="-162.747" font-family="Times,serif" font-size="14.00">_layout</text>
</g>
<!-- ExpertsController -->
<g id="node3" class="node"><title>ExpertsController</title>
<path fill="none" stroke="black" d="M168.655,-25.5C168.655,-25.5 260.965,-25.5 260.965,-25.5 266.965,-25.5 272.965,-31.5 272.965,-37.5 272.965,-37.5 272.965,-279.9 272.965,-279.9 272.965,-285.9 266.965,-291.9 260.965,-291.9 260.965,-291.9 168.655,-291.9 168.655,-291.9 162.655,-291.9 156.655,-285.9 156.655,-279.9 156.655,-279.9 156.655,-37.5 156.655,-37.5 156.655,-31.5 162.655,-25.5 168.655,-25.5"/>
<text text-anchor="middle" x="214.81" y="-273.9" font-family="Times,serif" font-size="14.00">ExpertsController</text>
<polyline fill="none" stroke="black" points="156.655,-267.1 272.965,-267.1 "/>
<text text-anchor="start" x="164.655" y="-249.1" font-family="Times,serif" font-size="14.00">create</text>
<text text-anchor="start" x="164.655" y="-232.3" font-family="Times,serif" font-size="14.00">create_profile</text>
<text text-anchor="start" x="164.655" y="-215.5" font-family="Times,serif" font-size="14.00">dashboard</text>
<text text-anchor="start" x="164.655" y="-198.7" font-family="Times,serif" font-size="14.00">edit</text>
<text text-anchor="start" x="164.655" y="-181.9" font-family="Times,serif" font-size="14.00">home</text>
<text text-anchor="start" x="164.655" y="-165.1" font-family="Times,serif" font-size="14.00">index</text>
<text text-anchor="start" x="164.655" y="-148.3" font-family="Times,serif" font-size="14.00">new</text>
<text text-anchor="start" x="164.655" y="-131.5" font-family="Times,serif" font-size="14.00">new_profile</text>
<text text-anchor="start" x="164.655" y="-114.7" font-family="Times,serif" font-size="14.00">profile</text>
<polyline fill="none" stroke="black" points="156.655,-107.9 272.965,-107.9 "/>
<polyline fill="none" stroke="black" points="156.655,-83.9 272.965,-83.9 "/>
<text text-anchor="start" x="164.655" y="-65.9" font-family="Times,serif" font-size="14.00">_layout</text>
<text text-anchor="start" x="164.655" y="-49.1" font-family="Times,serif" font-size="14.00">expert_params</text>
<text text-anchor="start" x="164.655" y="-32.3" font-family="Times,serif" font-size="14.00">set_expert</text>
</g>
<!-- ApplicationController&#45;&gt;ExpertsController -->
<g id="edge1" class="edge"><title>ApplicationController&#45;&gt;ExpertsController</title>
<path fill="none" stroke="black" d="M139.767,-182.533C143.739,-181.272 147.72,-180.007 151.665,-178.754"/>
<polyline fill="none" stroke="black" points="156.637,-177.175 151.871,-178.689 "/>
</g>
</g>
</svg>
