<?xml version="1.0" encoding="UTF-8" standalone="no"?>
<!DOCTYPE svg PUBLIC "-//W3C//DTD SVG 1.1//EN"
 "http://www.w3.org/Graphics/SVG/1.1/DTD/svg11.dtd">
<!-- Generated by graphviz version 2.34.0 (20131112.1627)
 -->
<!-- Title: models_diagram Pages: 1 -->
<svg width="1536pt" height="238pt"
 viewBox="0.00 0.00 1536.00 238.00" xmlns="http://www.w3.org/2000/svg" xmlns:xlink="http://www.w3.org/1999/xlink">
<g id="graph0" class="graph" transform="scale(1 1) rotate(0) translate(4 234)">
<title>models_diagram</title>
<polygon fill="white" stroke="white" points="-4,4 -4,-234 1532,-234 1532,4 -4,4"/>
<!-- _diagram_info -->
<g id="node1" class="node"><title>_diagram_info</title>
<text text-anchor="start" x="415.788" y="-213" font-family="Times,serif" font-size="13.00">Models diagram</text>
<text text-anchor="start" x="415.788" y="-197.4" font-family="Times,serif" font-size="13.00">Date: Nov 12 2013 &#45; 17:31</text>
<text text-anchor="start" x="415.788" y="-181.8" font-family="Times,serif" font-size="13.00">Migration version: 20131112151934</text>
<text text-anchor="start" x="415.788" y="-166.2" font-family="Times,serif" font-size="13.00">Generated by RailRoady 1.1.1</text>
<text text-anchor="start" x="415.788" y="-150.6" font-family="Times,serif" font-size="13.00">http://railroady.prestonlee.com</text>
</g>
<!-- AdminUser -->
<g id="node2" class="node"><title>AdminUser</title>
<ellipse fill="none" stroke="black" cx="56" cy="-90" rx="56.144" ry="18"/>
<text text-anchor="middle" x="56" y="-84.4" font-family="Times,serif" font-size="14.00">AdminUser</text>
</g>
<!-- Competence -->
<g id="node3" class="node"><title>Competence</title>
<ellipse fill="none" stroke="black" cx="189" cy="-90" rx="58.9547" ry="18"/>
<text text-anchor="middle" x="189" y="-84.4" font-family="Times,serif" font-size="14.00">Competence</text>
</g>
<!-- Cursu -->
<g id="node4" class="node"><title>Cursu</title>
<ellipse fill="none" stroke="black" cx="300" cy="-90" rx="34.1629" ry="18"/>
<text text-anchor="middle" x="300" y="-84.4" font-family="Times,serif" font-size="14.00">Cursu</text>
</g>
<!-- Entreprise -->
<g id="node5" class="node"><title>Entreprise</title>
<ellipse fill="none" stroke="black" cx="403" cy="-90" rx="50.5802" ry="18"/>
<text text-anchor="middle" x="403" y="-84.4" font-family="Times,serif" font-size="14.00">Entreprise</text>
</g>
<!-- Experience -->
<g id="node6" class="node"><title>Experience</title>
<ellipse fill="none" stroke="black" cx="526" cy="-90" rx="54.1969" ry="18"/>
<text text-anchor="middle" x="526" y="-84.4" font-family="Times,serif" font-size="14.00">Experience</text>
</g>
<!-- Expert -->
<g id="node7" class="node"><title>Expert</title>
<ellipse fill="none" stroke="black" cx="1053" cy="-18" rx="36.1697" ry="18"/>
<text text-anchor="middle" x="1053" y="-12.4" font-family="Times,serif" font-size="14.00">Expert</text>
</g>
<!-- ExpertCompetence -->
<g id="node8" class="node"><title>ExpertCompetence</title>
<ellipse fill="none" stroke="black" cx="721" cy="-90" rx="85.0648" ry="18"/>
<text text-anchor="middle" x="721" y="-84.4" font-family="Times,serif" font-size="14.00">ExpertCompetence</text>
</g>
<!-- Mission -->
<g id="node9" class="node"><title>Mission</title>
<ellipse fill="none" stroke="black" cx="866" cy="-90" rx="42.2437" ry="18"/>
<text text-anchor="middle" x="866" y="-84.4" font-family="Times,serif" font-size="14.00">Mission</text>
</g>
<!-- MissionType -->
<g id="node10" class="node"><title>MissionType</title>
<ellipse fill="none" stroke="black" cx="987" cy="-90" rx="60.9959" ry="18"/>
<text text-anchor="middle" x="987" y="-84.4" font-family="Times,serif" font-size="14.00">MissionType</text>
</g>
<!-- Responsability -->
<g id="node11" class="node"><title>Responsability</title>
<ellipse fill="none" stroke="black" cx="1135" cy="-90" rx="68.1612" ry="18"/>
<text text-anchor="middle" x="1135" y="-84.4" font-family="Times,serif" font-size="14.00">Responsability</text>
</g>
<!-- Secteur -->
<g id="node12" class="node"><title>Secteur</title>
<ellipse fill="none" stroke="black" cx="1261" cy="-90" rx="39.4899" ry="18"/>
<text text-anchor="middle" x="1261" y="-84.4" font-family="Times,serif" font-size="14.00">Secteur</text>
</g>
<!-- SecteurExpert -->
<g id="node13" class="node"><title>SecteurExpert</title>
<ellipse fill="none" stroke="black" cx="1385" cy="-90" rx="65.6006" ry="18"/>
<text text-anchor="middle" x="1385" y="-84.4" font-family="Times,serif" font-size="14.00">SecteurExpert</text>
</g>
<!-- User -->
<g id="node14" class="node"><title>User</title>
<ellipse fill="none" stroke="black" cx="1498" cy="-90" rx="28.9087" ry="18"/>
<text text-anchor="middle" x="1498" y="-84.4" font-family="Times,serif" font-size="14.00">User</text>
</g>
<!-- User&#45;&gt;Expert -->
<g id="edge13" class="edge"><title>User&#45;&gt;Expert</title>
<path fill="none" stroke="#3bcb1b" d="M1468.21,-75.0124C1465.14,-73.8749 1462.04,-72.8417 1459,-72 1330.88,-36.4803 1173.24,-24.5717 1097.62,-20.7333"/>
<ellipse fill="none" stroke="#3bcb1b" cx="1471.99" cy="-76.5216" rx="4.00001" ry="4.00001"/>
<ellipse fill="#3bcb1b" stroke="#3bcb1b" cx="1093.24" cy="-20.5197" rx="4" ry="4"/>
</g>
<!-- ActiveRecord::Base -->
<g id="node15" class="node"><title>ActiveRecord::Base</title>
<ellipse fill="none" stroke="black" cx="721" cy="-187" rx="88.2033" ry="18"/>
<text text-anchor="middle" x="721" y="-181.4" font-family="Times,serif" font-size="14.00">ActiveRecord::Base</text>
</g>
<!-- ActiveRecord::Base&#45;&gt;AdminUser -->
<g id="edge1" class="edge"><title>ActiveRecord::Base&#45;&gt;AdminUser</title>
<path fill="none" stroke="black" d="M691.008,-170.043C672.057,-160.753 646.744,-149.766 623,-144 405.634,-91.2119 341.694,-144.454 121,-108 114.489,-106.924 107.681,-105.494 101.025,-103.918"/>
<polyline fill="none" stroke="black" points="95.9726,-102.688 100.831,-103.871 "/>
</g>
<!-- ActiveRecord::Base&#45;&gt;Competence -->
<g id="edge2" class="edge"><title>ActiveRecord::Base&#45;&gt;Competence</title>
<path fill="none" stroke="black" d="M690.521,-170.054C671.598,-160.89 646.486,-150.034 623,-144 464.689,-103.329 418.053,-135.897 257,-108 250.407,-106.858 243.509,-105.422 236.742,-103.872"/>
<polyline fill="none" stroke="black" points="231.599,-102.667 236.468,-103.808 "/>
</g>
<!-- ActiveRecord::Base&#45;&gt;Cursu -->
<g id="edge3" class="edge"><title>ActiveRecord::Base&#45;&gt;Cursu</title>
<path fill="none" stroke="black" d="M690.02,-170.096C671.124,-161.066 646.215,-150.335 623,-144 501.956,-110.971 464.5,-139.306 343,-108 338.865,-106.935 334.593,-105.578 330.418,-104.098"/>
<polyline fill="none" stroke="black" points="325.576,-102.312 330.267,-104.042 "/>
</g>
<!-- ActiveRecord::Base&#45;&gt;Entreprise -->
<g id="edge4" class="edge"><title>ActiveRecord::Base&#45;&gt;Entreprise</title>
<path fill="none" stroke="black" d="M688.018,-170.065C669.276,-161.471 645.189,-151.184 623,-144 553.655,-121.549 533.646,-125.942 463,-108 457.343,-106.563 451.408,-104.978 445.563,-103.37"/>
<polyline fill="none" stroke="black" points="440.683,-102.017 445.501,-103.353 "/>
</g>
<!-- ActiveRecord::Base&#45;&gt;Experience -->
<g id="edge5" class="edge"><title>ActiveRecord::Base&#45;&gt;Experience</title>
<path fill="none" stroke="black" d="M688.361,-170.099C652.771,-152.76 596.077,-125.14 559.971,-107.55"/>
<polyline fill="none" stroke="black" points="555.235,-105.243 559.73,-107.433 "/>
</g>
<!-- ActiveRecord::Base&#45;&gt;Expert -->
<g id="edge6" class="edge"><title>ActiveRecord::Base&#45;&gt;Expert</title>
<path fill="none" stroke="black" d="M691.083,-169.854C653.384,-147.5 596.941,-106.03 627,-72 652.261,-43.4016 909.726,-26.6414 1011.72,-21.0807"/>
<polyline fill="none" stroke="black" points="1016.75,-20.8086 1011.75,-21.0787 "/>
</g>
<!-- ActiveRecord::Base&#45;&gt;ExpertCompetence -->
<g id="edge7" class="edge"><title>ActiveRecord::Base&#45;&gt;ExpertCompetence</title>
<path fill="none" stroke="black" d="M721,-168.576C721,-153.041 721,-130.217 721,-113.345"/>
<polyline fill="none" stroke="black" points="721,-108.314 721,-113.314 "/>
</g>
<!-- ActiveRecord::Base&#45;&gt;Mission -->
<g id="edge8" class="edge"><title>ActiveRecord::Base&#45;&gt;Mission</title>
<path fill="none" stroke="black" d="M745.926,-169.669C771.951,-152.618 812.619,-125.974 839.29,-108.5"/>
<polyline fill="none" stroke="black" points="843.773,-105.563 839.591,-108.303 "/>
</g>
<!-- ActiveRecord::Base&#45;&gt;MissionType -->
<g id="edge9" class="edge"><title>ActiveRecord::Base&#45;&gt;MissionType</title>
<path fill="none" stroke="black" d="M762.855,-171.052C812.604,-153.284 895.136,-123.809 944.964,-106.013"/>
<polyline fill="none" stroke="black" points="949.682,-104.328 944.973,-106.01 "/>
</g>
<!-- ActiveRecord::Base&#45;&gt;Responsability -->
<g id="edge10" class="edge"><title>ActiveRecord::Base&#45;&gt;Responsability</title>
<path fill="none" stroke="black" d="M777.265,-173.089C856.876,-154.821 1001.46,-121.644 1080.24,-103.566"/>
<polyline fill="none" stroke="black" points="1085.33,-102.397 1080.46,-103.516 "/>
</g>
<!-- ActiveRecord::Base&#45;&gt;Secteur -->
<g id="edge11" class="edge"><title>ActiveRecord::Base&#45;&gt;Secteur</title>
<path fill="none" stroke="black" d="M797.965,-178.031C895.357,-166.978 1067.79,-144.169 1212,-108 1216.85,-106.784 1221.9,-105.297 1226.83,-103.712"/>
<polyline fill="none" stroke="black" points="1231.72,-102.102 1226.97,-103.667 "/>
</g>
<!-- ActiveRecord::Base&#45;&gt;SecteurExpert -->
<g id="edge12" class="edge"><title>ActiveRecord::Base&#45;&gt;SecteurExpert</title>
<path fill="none" stroke="black" d="M797.916,-177.987C910.546,-165.759 1126.76,-140.405 1309,-108 1316.46,-106.673 1324.3,-105.112 1331.99,-103.483"/>
<polyline fill="none" stroke="black" points="1337.29,-102.346 1332.4,-103.396 "/>
</g>
<!-- ActiveRecord::Base&#45;&gt;User -->
<g id="edge14" class="edge"><title>ActiveRecord::Base&#45;&gt;User</title>
<path fill="none" stroke="black" d="M809.188,-185.318C949.202,-182.323 1229.95,-168.487 1459,-108 1463.11,-106.916 1467.34,-105.461 1471.43,-103.856"/>
<polyline fill="none" stroke="black" points="1476.15,-101.918 1471.52,-103.817 "/>
</g>
</g>
</svg>
