<?xml version="1.0" encoding="UTF-8" standalone="no"?>
<!DOCTYPE svg PUBLIC "-//W3C//DTD SVG 1.1//EN"
 "http://www.w3.org/Graphics/SVG/1.1/DTD/svg11.dtd">
<!-- Generated by graphviz version 2.34.0 (20131112.1627)
 -->
<!-- Title: models_diagram Pages: 1 -->
<svg width="2020pt" height="704pt"
 viewBox="0.00 0.00 2020.00 704.00" xmlns="http://www.w3.org/2000/svg" xmlns:xlink="http://www.w3.org/1999/xlink">
<g id="graph0" class="graph" transform="scale(1 1) rotate(0) translate(4 700)">
<title>models_diagram</title>
<polygon fill="white" stroke="white" points="-4,4 -4,-700 2016,-700 2016,4 -4,4"/>
<!-- _diagram_info -->
<g id="node1" class="node"><title>_diagram_info</title>
<text text-anchor="start" x="632.788" y="-679" font-family="Times,serif" font-size="13.00">Models diagram</text>
<text text-anchor="start" x="632.788" y="-663.4" font-family="Times,serif" font-size="13.00">Date: Nov 12 2013 &#45; 17:31</text>
<text text-anchor="start" x="632.788" y="-647.8" font-family="Times,serif" font-size="13.00">Migration version: 20131112151934</text>
<text text-anchor="start" x="632.788" y="-632.2" font-family="Times,serif" font-size="13.00">Generated by RailRoady 1.1.1</text>
<text text-anchor="start" x="632.788" y="-616.6" font-family="Times,serif" font-size="13.00">http://railroady.prestonlee.com</text>
</g>
<!-- AdminUser -->
<g id="node2" class="node"><title>AdminUser</title>
<path fill="none" stroke="black" d="M11.7222,-280.4C11.7222,-280.4 192.278,-280.4 192.278,-280.4 198.278,-280.4 204.278,-286.4 204.278,-292.4 204.278,-292.4 204.278,-519.6 204.278,-519.6 204.278,-525.6 198.278,-531.6 192.278,-531.6 192.278,-531.6 11.7222,-531.6 11.7222,-531.6 5.72217,-531.6 -0.277832,-525.6 -0.277832,-519.6 -0.277832,-519.6 -0.277832,-292.4 -0.277832,-292.4 -0.277832,-286.4 5.72217,-280.4 11.7222,-280.4"/>
<text text-anchor="middle" x="102" y="-513.6" font-family="Times,serif" font-size="14.00">AdminUser</text>
<polyline fill="none" stroke="black" points="-0.277832,-506.8 204.278,-506.8 "/>
<text text-anchor="start" x="7.72217" y="-488.8" font-family="Times,serif" font-size="14.00">id :integer</text>
<text text-anchor="start" x="7.72217" y="-472" font-family="Times,serif" font-size="14.00">email :string</text>
<text text-anchor="start" x="7.72217" y="-455.2" font-family="Times,serif" font-size="14.00">encrypted_password :string</text>
<text text-anchor="start" x="7.72217" y="-438.4" font-family="Times,serif" font-size="14.00">reset_password_token :string</text>
<text text-anchor="start" x="7.72217" y="-421.6" font-family="Times,serif" font-size="14.00">reset_password_sent_at :datetime</text>
<text text-anchor="start" x="7.72217" y="-404.8" font-family="Times,serif" font-size="14.00">remember_created_at :datetime</text>
<text text-anchor="start" x="7.72217" y="-388" font-family="Times,serif" font-size="14.00">sign_in_count :integer</text>
<text text-anchor="start" x="7.72217" y="-371.2" font-family="Times,serif" font-size="14.00">current_sign_in_at :datetime</text>
<text text-anchor="start" x="7.72217" y="-354.4" font-family="Times,serif" font-size="14.00">last_sign_in_at :datetime</text>
<text text-anchor="start" x="7.72217" y="-337.6" font-family="Times,serif" font-size="14.00">current_sign_in_ip :string</text>
<text text-anchor="start" x="7.72217" y="-320.8" font-family="Times,serif" font-size="14.00">last_sign_in_ip :string</text>
<text text-anchor="start" x="7.72217" y="-304" font-family="Times,serif" font-size="14.00">created_at :datetime</text>
<text text-anchor="start" x="7.72217" y="-287.2" font-family="Times,serif" font-size="14.00">updated_at :datetime</text>
</g>
<!-- Competence -->
<g id="node3" class="node"><title>Competence</title>
<path fill="none" stroke="black" d="M234.495,-347.6C234.495,-347.6 343.505,-347.6 343.505,-347.6 349.505,-347.6 355.505,-353.6 355.505,-359.6 355.505,-359.6 355.505,-452.4 355.505,-452.4 355.505,-458.4 349.505,-464.4 343.505,-464.4 343.505,-464.4 234.495,-464.4 234.495,-464.4 228.495,-464.4 222.495,-458.4 222.495,-452.4 222.495,-452.4 222.495,-359.6 222.495,-359.6 222.495,-353.6 228.495,-347.6 234.495,-347.6"/>
<text text-anchor="middle" x="289" y="-446.4" font-family="Times,serif" font-size="14.00">Competence</text>
<polyline fill="none" stroke="black" points="222.495,-439.6 355.505,-439.6 "/>
<text text-anchor="start" x="230.495" y="-421.6" font-family="Times,serif" font-size="14.00">id :integer</text>
<text text-anchor="start" x="230.495" y="-404.8" font-family="Times,serif" font-size="14.00">name :string</text>
<text text-anchor="start" x="230.495" y="-388" font-family="Times,serif" font-size="14.00">expert_id :integer</text>
<text text-anchor="start" x="230.495" y="-371.2" font-family="Times,serif" font-size="14.00">created_at :datetime</text>
<text text-anchor="start" x="230.495" y="-354.4" font-family="Times,serif" font-size="14.00">updated_at :datetime</text>
</g>
<!-- Cursu -->
<g id="node4" class="node"><title>Cursu</title>
<path fill="none" stroke="black" d="M385.495,-330.8C385.495,-330.8 494.505,-330.8 494.505,-330.8 500.505,-330.8 506.505,-336.8 506.505,-342.8 506.505,-342.8 506.505,-469.2 506.505,-469.2 506.505,-475.2 500.505,-481.2 494.505,-481.2 494.505,-481.2 385.495,-481.2 385.495,-481.2 379.495,-481.2 373.495,-475.2 373.495,-469.2 373.495,-469.2 373.495,-342.8 373.495,-342.8 373.495,-336.8 379.495,-330.8 385.495,-330.8"/>
<text text-anchor="middle" x="440" y="-463.2" font-family="Times,serif" font-size="14.00">Cursu</text>
<polyline fill="none" stroke="black" points="373.495,-456.4 506.505,-456.4 "/>
<text text-anchor="start" x="381.495" y="-438.4" font-family="Times,serif" font-size="14.00">id :integer</text>
<text text-anchor="start" x="381.495" y="-421.6" font-family="Times,serif" font-size="14.00">diplome :string</text>
<text text-anchor="start" x="381.495" y="-404.8" font-family="Times,serif" font-size="14.00">university :string</text>
<text text-anchor="start" x="381.495" y="-388" font-family="Times,serif" font-size="14.00">years :integer</text>
<text text-anchor="start" x="381.495" y="-371.2" font-family="Times,serif" font-size="14.00">expert_id :integer</text>
<text text-anchor="start" x="381.495" y="-354.4" font-family="Times,serif" font-size="14.00">created_at :datetime</text>
<text text-anchor="start" x="381.495" y="-337.6" font-family="Times,serif" font-size="14.00">updated_at :datetime</text>
</g>
<!-- Entreprise -->
<g id="node5" class="node"><title>Entreprise</title>
<path fill="none" stroke="black" d="M536.495,-339.2C536.495,-339.2 645.505,-339.2 645.505,-339.2 651.505,-339.2 657.505,-345.2 657.505,-351.2 657.505,-351.2 657.505,-460.8 657.505,-460.8 657.505,-466.8 651.505,-472.8 645.505,-472.8 645.505,-472.8 536.495,-472.8 536.495,-472.8 530.495,-472.8 524.495,-466.8 524.495,-460.8 524.495,-460.8 524.495,-351.2 524.495,-351.2 524.495,-345.2 530.495,-339.2 536.495,-339.2"/>
<text text-anchor="middle" x="591" y="-454.8" font-family="Times,serif" font-size="14.00">Entreprise</text>
<polyline fill="none" stroke="black" points="524.495,-448 657.505,-448 "/>
<text text-anchor="start" x="532.495" y="-430" font-family="Times,serif" font-size="14.00">id :integer</text>
<text text-anchor="start" x="532.495" y="-413.2" font-family="Times,serif" font-size="14.00">name :string</text>
<text text-anchor="start" x="532.495" y="-396.4" font-family="Times,serif" font-size="14.00">tel :integer</text>
<text text-anchor="start" x="532.495" y="-379.6" font-family="Times,serif" font-size="14.00">user_id :integer</text>
<text text-anchor="start" x="532.495" y="-362.8" font-family="Times,serif" font-size="14.00">created_at :datetime</text>
<text text-anchor="start" x="532.495" y="-346" font-family="Times,serif" font-size="14.00">updated_at :datetime</text>
</g>
<!-- Experience -->
<g id="node6" class="node"><title>Experience</title>
<path fill="none" stroke="black" d="M687.495,-330.8C687.495,-330.8 796.505,-330.8 796.505,-330.8 802.505,-330.8 808.505,-336.8 808.505,-342.8 808.505,-342.8 808.505,-469.2 808.505,-469.2 808.505,-475.2 802.505,-481.2 796.505,-481.2 796.505,-481.2 687.495,-481.2 687.495,-481.2 681.495,-481.2 675.495,-475.2 675.495,-469.2 675.495,-469.2 675.495,-342.8 675.495,-342.8 675.495,-336.8 681.495,-330.8 687.495,-330.8"/>
<text text-anchor="middle" x="742" y="-463.2" font-family="Times,serif" font-size="14.00">Experience</text>
<polyline fill="none" stroke="black" points="675.495,-456.4 808.505,-456.4 "/>
<text text-anchor="start" x="683.495" y="-438.4" font-family="Times,serif" font-size="14.00">id :integer</text>
<text text-anchor="start" x="683.495" y="-421.6" font-family="Times,serif" font-size="14.00">entreprise :string</text>
<text text-anchor="start" x="683.495" y="-404.8" font-family="Times,serif" font-size="14.00">poste :string</text>
<text text-anchor="start" x="683.495" y="-388" font-family="Times,serif" font-size="14.00">description :text</text>
<text text-anchor="start" x="683.495" y="-371.2" font-family="Times,serif" font-size="14.00">expert_id :integer</text>
<text text-anchor="start" x="683.495" y="-354.4" font-family="Times,serif" font-size="14.00">created_at :datetime</text>
<text text-anchor="start" x="683.495" y="-337.6" font-family="Times,serif" font-size="14.00">updated_at :datetime</text>
</g>
<!-- Expert -->
<g id="node7" class="node"><title>Expert</title>
<path fill="none" stroke="black" d="M1318.49,-0.6C1318.49,-0.6 1427.51,-0.6 1427.51,-0.6 1433.51,-0.6 1439.51,-6.6 1439.51,-12.6 1439.51,-12.6 1439.51,-189.4 1439.51,-189.4 1439.51,-195.4 1433.51,-201.4 1427.51,-201.4 1427.51,-201.4 1318.49,-201.4 1318.49,-201.4 1312.49,-201.4 1306.49,-195.4 1306.49,-189.4 1306.49,-189.4 1306.49,-12.6 1306.49,-12.6 1306.49,-6.6 1312.49,-0.6 1318.49,-0.6"/>
<text text-anchor="middle" x="1373" y="-183.4" font-family="Times,serif" font-size="14.00">Expert</text>
<polyline fill="none" stroke="black" points="1306.49,-176.6 1439.51,-176.6 "/>
<text text-anchor="start" x="1314.49" y="-158.6" font-family="Times,serif" font-size="14.00">id :integer</text>
<text text-anchor="start" x="1314.49" y="-141.8" font-family="Times,serif" font-size="14.00">first_name :string</text>
<text text-anchor="start" x="1314.49" y="-125" font-family="Times,serif" font-size="14.00">last_name :string</text>
<text text-anchor="start" x="1314.49" y="-108.2" font-family="Times,serif" font-size="14.00">tel :integer</text>
<text text-anchor="start" x="1314.49" y="-91.4" font-family="Times,serif" font-size="14.00">birthdate :datetime</text>
<text text-anchor="start" x="1314.49" y="-74.6" font-family="Times,serif" font-size="14.00">profile_title :string</text>
<text text-anchor="start" x="1314.49" y="-57.8" font-family="Times,serif" font-size="14.00">services :string</text>
<text text-anchor="start" x="1314.49" y="-41" font-family="Times,serif" font-size="14.00">user_id :integer</text>
<text text-anchor="start" x="1314.49" y="-24.2" font-family="Times,serif" font-size="14.00">created_at :datetime</text>
<text text-anchor="start" x="1314.49" y="-7.4" font-family="Times,serif" font-size="14.00">updated_at :datetime</text>
</g>
<!-- ExpertCompetence -->
<g id="node8" class="node"><title>ExpertCompetence</title>
<path fill="none" stroke="black" d="M876.501,-339.2C876.501,-339.2 999.499,-339.2 999.499,-339.2 1005.5,-339.2 1011.5,-345.2 1011.5,-351.2 1011.5,-351.2 1011.5,-460.8 1011.5,-460.8 1011.5,-466.8 1005.5,-472.8 999.499,-472.8 999.499,-472.8 876.501,-472.8 876.501,-472.8 870.501,-472.8 864.501,-466.8 864.501,-460.8 864.501,-460.8 864.501,-351.2 864.501,-351.2 864.501,-345.2 870.501,-339.2 876.501,-339.2"/>
<text text-anchor="middle" x="938" y="-454.8" font-family="Times,serif" font-size="14.00">ExpertCompetence</text>
<polyline fill="none" stroke="black" points="864.501,-448 1011.5,-448 "/>
<text text-anchor="start" x="872.501" y="-430" font-family="Times,serif" font-size="14.00">id :integer</text>
<text text-anchor="start" x="872.501" y="-413.2" font-family="Times,serif" font-size="14.00">competence_id :integer</text>
<text text-anchor="start" x="872.501" y="-396.4" font-family="Times,serif" font-size="14.00">expert_id :integer</text>
<text text-anchor="start" x="872.501" y="-379.6" font-family="Times,serif" font-size="14.00">exp_yaers :integer</text>
<text text-anchor="start" x="872.501" y="-362.8" font-family="Times,serif" font-size="14.00">created_at :datetime</text>
<text text-anchor="start" x="872.501" y="-346" font-family="Times,serif" font-size="14.00">updated_at :datetime</text>
</g>
<!-- Mission -->
<g id="node9" class="node"><title>Mission</title>
<path fill="none" stroke="black" d="M1041.59,-305.6C1041.59,-305.6 1172.41,-305.6 1172.41,-305.6 1178.41,-305.6 1184.41,-311.6 1184.41,-317.6 1184.41,-317.6 1184.41,-494.4 1184.41,-494.4 1184.41,-500.4 1178.41,-506.4 1172.41,-506.4 1172.41,-506.4 1041.59,-506.4 1041.59,-506.4 1035.59,-506.4 1029.59,-500.4 1029.59,-494.4 1029.59,-494.4 1029.59,-317.6 1029.59,-317.6 1029.59,-311.6 1035.59,-305.6 1041.59,-305.6"/>
<text text-anchor="middle" x="1107" y="-488.4" font-family="Times,serif" font-size="14.00">Mission</text>
<polyline fill="none" stroke="black" points="1029.59,-481.6 1184.41,-481.6 "/>
<text text-anchor="start" x="1037.59" y="-463.6" font-family="Times,serif" font-size="14.00">id :integer</text>
<text text-anchor="start" x="1037.59" y="-446.8" font-family="Times,serif" font-size="14.00">name :string</text>
<text text-anchor="start" x="1037.59" y="-430" font-family="Times,serif" font-size="14.00">mission_type_id :integer</text>
<text text-anchor="start" x="1037.59" y="-413.2" font-family="Times,serif" font-size="14.00">entreprise_id :integer</text>
<text text-anchor="start" x="1037.59" y="-396.4" font-family="Times,serif" font-size="14.00">budget_min :integer</text>
<text text-anchor="start" x="1037.59" y="-379.6" font-family="Times,serif" font-size="14.00">budget_max :integer</text>
<text text-anchor="start" x="1037.59" y="-362.8" font-family="Times,serif" font-size="14.00">duration_min :integer</text>
<text text-anchor="start" x="1037.59" y="-346" font-family="Times,serif" font-size="14.00">duration_max :integer</text>
<text text-anchor="start" x="1037.59" y="-329.2" font-family="Times,serif" font-size="14.00">created_at :datetime</text>
<text text-anchor="start" x="1037.59" y="-312.4" font-family="Times,serif" font-size="14.00">updated_at :datetime</text>
</g>
<!-- MissionType -->
<g id="node10" class="node"><title>MissionType</title>
<path fill="none" stroke="black" d="M1214.49,-356C1214.49,-356 1323.51,-356 1323.51,-356 1329.51,-356 1335.51,-362 1335.51,-368 1335.51,-368 1335.51,-444 1335.51,-444 1335.51,-450 1329.51,-456 1323.51,-456 1323.51,-456 1214.49,-456 1214.49,-456 1208.49,-456 1202.49,-450 1202.49,-444 1202.49,-444 1202.49,-368 1202.49,-368 1202.49,-362 1208.49,-356 1214.49,-356"/>
<text text-anchor="middle" x="1269" y="-438" font-family="Times,serif" font-size="14.00">MissionType</text>
<polyline fill="none" stroke="black" points="1202.49,-431.2 1335.51,-431.2 "/>
<text text-anchor="start" x="1210.49" y="-413.2" font-family="Times,serif" font-size="14.00">id :integer</text>
<text text-anchor="start" x="1210.49" y="-396.4" font-family="Times,serif" font-size="14.00">text :string</text>
<text text-anchor="start" x="1210.49" y="-379.6" font-family="Times,serif" font-size="14.00">created_at :datetime</text>
<text text-anchor="start" x="1210.49" y="-362.8" font-family="Times,serif" font-size="14.00">updated_at :datetime</text>
</g>
<!-- Responsability -->
<g id="node11" class="node"><title>Responsability</title>
<path fill="none" stroke="black" d="M1365.49,-330.8C1365.49,-330.8 1474.51,-330.8 1474.51,-330.8 1480.51,-330.8 1486.51,-336.8 1486.51,-342.8 1486.51,-342.8 1486.51,-469.2 1486.51,-469.2 1486.51,-475.2 1480.51,-481.2 1474.51,-481.2 1474.51,-481.2 1365.49,-481.2 1365.49,-481.2 1359.49,-481.2 1353.49,-475.2 1353.49,-469.2 1353.49,-469.2 1353.49,-342.8 1353.49,-342.8 1353.49,-336.8 1359.49,-330.8 1365.49,-330.8"/>
<text text-anchor="middle" x="1420" y="-463.2" font-family="Times,serif" font-size="14.00">Responsability</text>
<polyline fill="none" stroke="black" points="1353.49,-456.4 1486.51,-456.4 "/>
<text text-anchor="start" x="1361.49" y="-438.4" font-family="Times,serif" font-size="14.00">id :integer</text>
<text text-anchor="start" x="1361.49" y="-421.6" font-family="Times,serif" font-size="14.00">organisme :string</text>
<text text-anchor="start" x="1361.49" y="-404.8" font-family="Times,serif" font-size="14.00">poste :string</text>
<text text-anchor="start" x="1361.49" y="-388" font-family="Times,serif" font-size="14.00">description :text</text>
<text text-anchor="start" x="1361.49" y="-371.2" font-family="Times,serif" font-size="14.00">expert_id :integer</text>
<text text-anchor="start" x="1361.49" y="-354.4" font-family="Times,serif" font-size="14.00">created_at :datetime</text>
<text text-anchor="start" x="1361.49" y="-337.6" font-family="Times,serif" font-size="14.00">updated_at :datetime</text>
</g>
<!-- Secteur -->
<g id="node12" class="node"><title>Secteur</title>
<path fill="none" stroke="black" d="M1516.49,-347.6C1516.49,-347.6 1625.51,-347.6 1625.51,-347.6 1631.51,-347.6 1637.51,-353.6 1637.51,-359.6 1637.51,-359.6 1637.51,-452.4 1637.51,-452.4 1637.51,-458.4 1631.51,-464.4 1625.51,-464.4 1625.51,-464.4 1516.49,-464.4 1516.49,-464.4 1510.49,-464.4 1504.49,-458.4 1504.49,-452.4 1504.49,-452.4 1504.49,-359.6 1504.49,-359.6 1504.49,-353.6 1510.49,-347.6 1516.49,-347.6"/>
<text text-anchor="middle" x="1571" y="-446.4" font-family="Times,serif" font-size="14.00">Secteur</text>
<polyline fill="none" stroke="black" points="1504.49,-439.6 1637.51,-439.6 "/>
<text text-anchor="start" x="1512.49" y="-421.6" font-family="Times,serif" font-size="14.00">id :integer</text>
<text text-anchor="start" x="1512.49" y="-404.8" font-family="Times,serif" font-size="14.00">name :string</text>
<text text-anchor="start" x="1512.49" y="-388" font-family="Times,serif" font-size="14.00">expert_id :integer</text>
<text text-anchor="start" x="1512.49" y="-371.2" font-family="Times,serif" font-size="14.00">created_at :datetime</text>
<text text-anchor="start" x="1512.49" y="-354.4" font-family="Times,serif" font-size="14.00">updated_at :datetime</text>
</g>
<!-- SecteurExpert -->
<g id="node13" class="node"><title>SecteurExpert</title>
<path fill="none" stroke="black" d="M1667.49,-339.2C1667.49,-339.2 1776.51,-339.2 1776.51,-339.2 1782.51,-339.2 1788.51,-345.2 1788.51,-351.2 1788.51,-351.2 1788.51,-460.8 1788.51,-460.8 1788.51,-466.8 1782.51,-472.8 1776.51,-472.8 1776.51,-472.8 1667.49,-472.8 1667.49,-472.8 1661.49,-472.8 1655.49,-466.8 1655.49,-460.8 1655.49,-460.8 1655.49,-351.2 1655.49,-351.2 1655.49,-345.2 1661.49,-339.2 1667.49,-339.2"/>
<text text-anchor="middle" x="1722" y="-454.8" font-family="Times,serif" font-size="14.00">SecteurExpert</text>
<polyline fill="none" stroke="black" points="1655.49,-448 1788.51,-448 "/>
<text text-anchor="start" x="1663.49" y="-430" font-family="Times,serif" font-size="14.00">id :integer</text>
<text text-anchor="start" x="1663.49" y="-413.2" font-family="Times,serif" font-size="14.00">expert_id :integer</text>
<text text-anchor="start" x="1663.49" y="-396.4" font-family="Times,serif" font-size="14.00">secteur_id :integer</text>
<text text-anchor="start" x="1663.49" y="-379.6" font-family="Times,serif" font-size="14.00">exp_years :integer</text>
<text text-anchor="start" x="1663.49" y="-362.8" font-family="Times,serif" font-size="14.00">created_at :datetime</text>
<text text-anchor="start" x="1663.49" y="-346" font-family="Times,serif" font-size="14.00">updated_at :datetime</text>
</g>
<!-- User -->
<g id="node14" class="node"><title>User</title>
<path fill="none" stroke="black" d="M1818.72,-238.4C1818.72,-238.4 1999.28,-238.4 1999.28,-238.4 2005.28,-238.4 2011.28,-244.4 2011.28,-250.4 2011.28,-250.4 2011.28,-561.6 2011.28,-561.6 2011.28,-567.6 2005.28,-573.6 1999.28,-573.6 1999.28,-573.6 1818.72,-573.6 1818.72,-573.6 1812.72,-573.6 1806.72,-567.6 1806.72,-561.6 1806.72,-561.6 1806.72,-250.4 1806.72,-250.4 1806.72,-244.4 1812.72,-238.4 1818.72,-238.4"/>
<text text-anchor="middle" x="1909" y="-555.6" font-family="Times,serif" font-size="14.00">User</text>
<polyline fill="none" stroke="black" points="1806.72,-548.8 2011.28,-548.8 "/>
<text text-anchor="start" x="1814.72" y="-530.8" font-family="Times,serif" font-size="14.00">id :integer</text>
<text text-anchor="start" x="1814.72" y="-514" font-family="Times,serif" font-size="14.00">email :string</text>
<text text-anchor="start" x="1814.72" y="-497.2" font-family="Times,serif" font-size="14.00">encrypted_password :string</text>
<text text-anchor="start" x="1814.72" y="-480.4" font-family="Times,serif" font-size="14.00">reset_password_token :string</text>
<text text-anchor="start" x="1814.72" y="-463.6" font-family="Times,serif" font-size="14.00">reset_password_sent_at :datetime</text>
<text text-anchor="start" x="1814.72" y="-446.8" font-family="Times,serif" font-size="14.00">remember_created_at :datetime</text>
<text text-anchor="start" x="1814.72" y="-430" font-family="Times,serif" font-size="14.00">sign_in_count :integer</text>
<text text-anchor="start" x="1814.72" y="-413.2" font-family="Times,serif" font-size="14.00">current_sign_in_at :datetime</text>
<text text-anchor="start" x="1814.72" y="-396.4" font-family="Times,serif" font-size="14.00">last_sign_in_at :datetime</text>
<text text-anchor="start" x="1814.72" y="-379.6" font-family="Times,serif" font-size="14.00">current_sign_in_ip :string</text>
<text text-anchor="start" x="1814.72" y="-362.8" font-family="Times,serif" font-size="14.00">last_sign_in_ip :string</text>
<text text-anchor="start" x="1814.72" y="-346" font-family="Times,serif" font-size="14.00">created_at :datetime</text>
<text text-anchor="start" x="1814.72" y="-329.2" font-family="Times,serif" font-size="14.00">updated_at :datetime</text>
<text text-anchor="start" x="1814.72" y="-312.4" font-family="Times,serif" font-size="14.00">approved :boolean</text>
<text text-anchor="start" x="1814.72" y="-295.6" font-family="Times,serif" font-size="14.00">confirmation_token :string</text>
<text text-anchor="start" x="1814.72" y="-278.8" font-family="Times,serif" font-size="14.00">confirmed_at :datetime</text>
<text text-anchor="start" x="1814.72" y="-262" font-family="Times,serif" font-size="14.00">confirmation_sent_at :datetime</text>
<text text-anchor="start" x="1814.72" y="-245.2" font-family="Times,serif" font-size="14.00">unconfirmed_email :string</text>
</g>
<!-- User&#45;&gt;Expert -->
<g id="edge13" class="edge"><title>User&#45;&gt;Expert</title>
<path fill="none" stroke="#a893da" d="M1799.99,-240.298C1799,-239.521 1798,-238.754 1797,-238 1691.63,-158.69 1538.4,-124.688 1447.89,-110.828"/>
<ellipse fill="none" stroke="#a893da" cx="1803.34" cy="-243.05" rx="4.00002" ry="4.00002"/>
<ellipse fill="#a893da" stroke="#a893da" cx="1443.83" cy="-110.22" rx="4.00001" ry="4.00001"/>
</g>
<!-- ActiveRecord::Base -->
<g id="node15" class="node"><title>ActiveRecord::Base</title>
<ellipse fill="none" stroke="black" cx="938" cy="-653" rx="88.2033" ry="18"/>
<text text-anchor="middle" x="938" y="-647.4" font-family="Times,serif" font-size="14.00">ActiveRecord::Base</text>
</g>
<!-- ActiveRecord::Base&#45;&gt;AdminUser -->
<g id="edge1" class="edge"><title>ActiveRecord::Base&#45;&gt;AdminUser</title>
<path fill="none" stroke="black" d="M908.037,-635.924C889.096,-626.589 863.784,-615.597 840,-610 704.148,-578.03 334.062,-643.439 213,-574 196.018,-564.26 181.141,-550.74 168.263,-535.572"/>
<polyline fill="none" stroke="black" points="165.032,-531.682 168.226,-535.528 "/>
</g>
<!-- ActiveRecord::Base&#45;&gt;Competence -->
<g id="edge2" class="edge"><title>ActiveRecord::Base&#45;&gt;Competence</title>
<path fill="none" stroke="black" d="M907.569,-635.864C888.663,-626.631 863.553,-615.768 840,-610 736.965,-584.765 450.821,-634.951 364,-574 329.645,-549.882 310.776,-506.201 300.558,-469.562"/>
<polyline fill="none" stroke="black" points="299.234,-464.672 300.541,-469.498 "/>
</g>
<!-- ActiveRecord::Base&#45;&gt;Cursu -->
<g id="edge3" class="edge"><title>ActiveRecord::Base&#45;&gt;Cursu</title>
<path fill="none" stroke="black" d="M907.059,-635.948C888.178,-626.866 863.27,-616.131 840,-610 769.734,-591.488 573.736,-616.78 515,-574 486.229,-553.044 468.277,-518.463 457.185,-486.188"/>
<polyline fill="none" stroke="black" points="455.597,-481.445 457.184,-486.187 "/>
</g>
<!-- ActiveRecord::Base&#45;&gt;Entreprise -->
<g id="edge4" class="edge"><title>ActiveRecord::Base&#45;&gt;Entreprise</title>
<path fill="none" stroke="black" d="M905.51,-636.122C886.721,-627.439 862.427,-617.047 840,-610 764.661,-586.327 727.586,-623.432 666,-574 636.233,-550.108 617.89,-511.881 606.802,-478.026"/>
<polyline fill="none" stroke="black" points="605.218,-473.064 606.739,-477.828 "/>
</g>
<!-- ActiveRecord::Base&#45;&gt;Experience -->
<g id="edge5" class="edge"><title>ActiveRecord::Base&#45;&gt;Experience</title>
<path fill="none" stroke="black" d="M905.828,-636.206C880.677,-622.557 846.202,-600.82 823,-574 800.887,-548.439 783.296,-515.789 770.235,-486.151"/>
<polyline fill="none" stroke="black" points="768.178,-481.421 770.172,-486.006 "/>
</g>
<!-- ActiveRecord::Base&#45;&gt;Expert -->
<g id="edge6" class="edge"><title>ActiveRecord::Base&#45;&gt;Expert</title>
<path fill="none" stroke="black" d="M911.855,-635.775C892.389,-622.026 867.308,-600.363 856,-574 826.566,-505.379 810.411,-297.133 856,-238 910.216,-167.678 1172.22,-126.499 1301.11,-110.186"/>
<polyline fill="none" stroke="black" points="1306.39,-109.522 1301.43,-110.145 "/>
</g>
<!-- ActiveRecord::Base&#45;&gt;ExpertCompetence -->
<g id="edge7" class="edge"><title>ActiveRecord::Base&#45;&gt;ExpertCompetence</title>
<path fill="none" stroke="black" d="M938,-634.772C938,-602.695 938,-532.161 938,-478.023"/>
<polyline fill="none" stroke="black" points="938,-472.837 938,-477.837 "/>
</g>
<!-- ActiveRecord::Base&#45;&gt;Mission -->
<g id="edge8" class="edge"><title>ActiveRecord::Base&#45;&gt;Mission</title>
<path fill="none" stroke="black" d="M959.062,-635.361C976.833,-620.581 1002.16,-597.702 1020,-574 1034.5,-554.738 1047.87,-532.713 1059.55,-511.116"/>
<polyline fill="none" stroke="black" points="1062.02,-506.515 1059.66,-510.922 "/>
</g>
<!-- ActiveRecord::Base&#45;&gt;MissionType -->
<g id="edge9" class="edge"><title>ActiveRecord::Base&#45;&gt;MissionType</title>
<path fill="none" stroke="black" d="M1017.03,-644.895C1072.08,-636.208 1144.11,-616.904 1193,-574 1226.45,-544.642 1246.03,-497.582 1256.91,-460.889"/>
<polyline fill="none" stroke="black" points="1258.32,-456.012 1256.93,-460.814 "/>
</g>
<!-- ActiveRecord::Base&#45;&gt;Responsability -->
<g id="edge10" class="edge"><title>ActiveRecord::Base&#45;&gt;Responsability</title>
<path fill="none" stroke="black" d="M1018.06,-645.31C1121.57,-635.218 1294.44,-613.007 1344,-574 1371.68,-552.215 1389.63,-518.089 1401.09,-486.349"/>
<polyline fill="none" stroke="black" points="1402.87,-481.278 1401.21,-485.995 "/>
</g>
<!-- ActiveRecord::Base&#45;&gt;Secteur -->
<g id="edge11" class="edge"><title>ActiveRecord::Base&#45;&gt;Secteur</title>
<path fill="none" stroke="black" d="M1025.23,-649.83C1162.92,-644.778 1422.48,-628.152 1495,-574 1528.46,-549.01 1547.59,-505.813 1558.28,-469.613"/>
<polyline fill="none" stroke="black" points="1559.67,-464.781 1558.29,-469.586 "/>
</g>
<!-- ActiveRecord::Base&#45;&gt;SecteurExpert -->
<g id="edge12" class="edge"><title>ActiveRecord::Base&#45;&gt;SecteurExpert</title>
<path fill="none" stroke="black" d="M1026.67,-652.87C1194.19,-652.825 1549.1,-644.169 1646,-574 1677.35,-551.297 1696.07,-512.516 1707.07,-478.038"/>
<polyline fill="none" stroke="black" points="1708.64,-472.984 1707.16,-477.76 "/>
</g>
<!-- ActiveRecord::Base&#45;&gt;User -->
<g id="edge14" class="edge"><title>ActiveRecord::Base&#45;&gt;User</title>
<path fill="none" stroke="black" d="M1023.67,-648.39C1227.94,-639.195 1731.51,-612.837 1797,-574 1798.86,-572.898 1800.69,-571.752 1802.5,-570.564"/>
<polyline fill="none" stroke="black" points="1806.68,-567.719 1802.55,-570.534 "/>
</g>
</g>
</svg>
